<?xml version="1.0" encoding="UTF-8" standalone="no"?>
<!-- Created with Inkscape (http://www.inkscape.org/) -->

<svg
   width="1000mm"
   height="1000mm"
   viewBox="0 0 1000 1000"
   version="1.1"
   id="svg5"
   inkscape:version="1.1.2 (0a00cf5339, 2022-02-04)"
   sodipodi:docname="Logo.svg"
   xmlns:inkscape="http://www.inkscape.org/namespaces/inkscape"
   xmlns:sodipodi="http://sodipodi.sourceforge.net/DTD/sodipodi-0.dtd"
   xmlns="http://www.w3.org/2000/svg"
   xmlns:svg="http://www.w3.org/2000/svg">
  <sodipodi:namedview
     id="namedview7"
     pagecolor="#505050"
     bordercolor="#eeeeee"
     borderopacity="1"
     inkscape:pageshadow="0"
     inkscape:pageopacity="0"
     inkscape:pagecheckerboard="0"
     inkscape:document-units="px"
     showgrid="false"
     inkscape:zoom="0.19398324"
     inkscape:cx="1023.2843"
     inkscape:cy="2250.1944"
     inkscape:window-width="1916"
     inkscape:window-height="1048"
     inkscape:window-x="0"
     inkscape:window-y="514"
     inkscape:window-maximized="1"
     inkscape:current-layer="text9570"
     fit-margin-top="0"
     fit-margin-left="0"
     fit-margin-right="0"
     fit-margin-bottom="0" />
  <defs
     id="defs2">
    <rect
       x="-480.98978"
       y="225.77817"
       width="1738.356"
       height="666.45862"
       id="rect9572" />
  </defs>
  <g
     inkscape:label="Layer 1"
     inkscape:groupmode="layer"
     id="layer1"
     transform="translate(395,351.5)">
    <circle
       style="fill:#43474a;fill-opacity:1;fill-rule:evenodd;stroke-width:0.264583"
       id="path39"
       cx="105"
       cy="148.5"
       r="500" />
    <g
       id="SVGRepo_bgCarrier"
       stroke-width="0"
       transform="matrix(0.26458333,0,0,0.26458333,674.28259,508.39582)" />
    <g
       id="SVGRepo_tracerCarrier"
       stroke-linecap="round"
       stroke-linejoin="round"
       transform="matrix(0.26458333,0,0,0.26458333,674.28259,508.39582)" />
    <g
       id="SVGRepo_iconCarrier"
       transform="matrix(0.26458333,0,0,0.26458333,674.28259,508.39582)">
      <g
         id="g153" />
    </g>
    <g
       id="g151"
       transform="matrix(1.5384615,0,0,1.5384615,-269.99999,-226.49999)">
      <path
         d="M 437,12.3 C 437,5.5 431.5,0 424.7,0 H 126.3 C 84.4,0 50.4,34.1 50.4,75.9 v 335.7 c 0,41.9 34.1,75.9 75.9,75.9 h 298.5 c 6.8,0 12.3,-5.5 12.3,-12.3 V 139.6 c 0,-6.8 -5.5,-12.3 -12.3,-12.3 H 126.3 C 98,127.3 74.9,104.2 74.9,75.9 74.9,47.6 98,24.5 126.3,24.5 H 424.8 C 431.5,24.5 437,19 437,12.3 Z M 126.3,151.8 H 412.5 V 463 H 126.3 C 98,463 74.9,439.9 74.9,411.6 V 131.7 c 13.5,12.5 31.6,20.1 51.4,20.1 z"
         id="path145"
         style="fill:#e9d16f;fill-opacity:1;stroke-width:0.9997;stroke-miterlimit:4;stroke-dasharray:none" />
      <path
         d="m 130.5,64.8 c -6.8,0 -12.3,5.5 -12.3,12.3 0,6.8 5.5,12.3 12.3,12.3 h 280.1 c 6.8,0 12.3,-5.5 12.3,-12.3 0,-6.8 -5.5,-12.3 -12.3,-12.3 z"
         id="path147"
         style="fill:#e9d16f;fill-opacity:1" />
    </g>
    <g
       style="fill:#e9d16f;fill-opacity:1;shape-rendering:crispEdges"
       id="g3886"
       transform="matrix(1.2726544,0,0,1.2726544,-141.31584,278.79183)">
      <g
         id="g3843"
         style="fill:#e9d16f;fill-opacity:1">
        <title
           id="title3808">Layer 1</title>
        <g
           id="svg_1"
           fill="#000000"
           style="fill:#e9d16f;fill-opacity:1" />
        <g
           id="svg_4"
           fill="#000000"
           style="fill:#e9d16f;fill-opacity:1" />
        <g
           id="svg_5"
           fill="#000000"
           style="fill:#e9d16f;fill-opacity:1">
          <rect
             id="svg_6"
             height="144.41209"
             width="3.3085001"
             y="0"
             x="36.393101"
             style="fill:#e9d16f;fill-opacity:1" />
          <rect
             id="svg_7"
             height="144.41209"
             width="3.3085001"
             y="0"
             x="43.009998"
             style="fill:#e9d16f;fill-opacity:1" />
          <rect
             id="svg_8"
             height="126.9514"
             width="10.1799"
             y="0"
             x="49.372398"
             style="fill:#e9d16f;fill-opacity:1" />
          <rect
             id="svg_9"
             height="126.9514"
             width="6.8713999"
             y="0"
             x="62.606201"
             style="fill:#e9d16f;fill-opacity:1" />
          <rect
             id="svg_10"
             height="126.9514"
             width="3.0539999"
             y="0"
             x="79.657501"
             style="fill:#e9d16f;fill-opacity:1" />
          <rect
             id="svg_11"
             height="126.9514"
             width="3.0539999"
             y="0"
             x="89.582901"
             style="fill:#e9d16f;fill-opacity:1" />
          <rect
             id="svg_12"
             height="126.9514"
             width="3.3085001"
             y="0"
             x="95.945297"
             style="fill:#e9d16f;fill-opacity:1" />
          <rect
             id="svg_13"
             height="126.9514"
             width="9.9253998"
             y="0"
             x="105.8707"
             style="fill:#e9d16f;fill-opacity:1" />
          <rect
             id="svg_14"
             height="126.9514"
             width="3.3085001"
             y="0"
             x="125.7215"
             style="fill:#e9d16f;fill-opacity:1" />
          <rect
             id="svg_15"
             height="126.9514"
             width="6.6169"
             y="0"
             x="132.33839"
             style="fill:#e9d16f;fill-opacity:1" />
          <rect
             id="svg_16"
             height="126.9514"
             width="3.0539999"
             y="0"
             x="145.82671"
             style="fill:#e9d16f;fill-opacity:1" />
          <rect
             id="svg_17"
             height="126.9514"
             width="3.0539999"
             y="0"
             x="159.06059"
             style="fill:#e9d16f;fill-opacity:1" />
          <rect
             id="svg_18"
             height="126.9514"
             width="13.2338"
             y="0"
             x="165.423"
             style="fill:#e9d16f;fill-opacity:1" />
          <rect
             id="svg_19"
             height="126.9514"
             width="3.3085001"
             y="0"
             x="181.9653"
             style="fill:#e9d16f;fill-opacity:1" />
          <rect
             id="svg_20"
             height="144.41209"
             width="3.3085001"
             y="0"
             x="188.5822"
             style="fill:#e9d16f;fill-opacity:1" />
          <rect
             id="svg_21"
             height="144.41209"
             width="3.3085001"
             y="0"
             x="195.1992"
             style="fill:#e9d16f;fill-opacity:1" />
          <rect
             id="svg_22"
             height="126.9514"
             width="9.9253998"
             y="0"
             x="201.8161"
             style="fill:#e9d16f;fill-opacity:1" />
          <rect
             id="svg_23"
             height="126.9514"
             width="3.3085001"
             y="0"
             x="218.3584"
             style="fill:#e9d16f;fill-opacity:1" />
          <rect
             id="svg_24"
             height="126.9514"
             width="3.3085001"
             y="0"
             x="224.9753"
             style="fill:#e9d16f;fill-opacity:1" />
          <rect
             id="svg_25"
             height="126.9514"
             width="9.9253998"
             y="0"
             x="234.9007"
             style="fill:#e9d16f;fill-opacity:1" />
          <rect
             id="svg_26"
             height="126.9514"
             width="9.9253998"
             y="0"
             x="248.13451"
             style="fill:#e9d16f;fill-opacity:1" />
          <rect
             id="svg_27"
             height="126.9514"
             width="3.3085001"
             y="0"
             x="264.67679"
             style="fill:#e9d16f;fill-opacity:1" />
          <rect
             id="svg_28"
             height="126.9514"
             width="9.9253998"
             y="0"
             x="271.2937"
             style="fill:#e9d16f;fill-opacity:1" />
          <rect
             id="svg_29"
             height="126.9514"
             width="3.3085001"
             y="0"
             x="284.52759"
             style="fill:#e9d16f;fill-opacity:1" />
          <rect
             id="svg_30"
             height="126.9514"
             width="6.8713999"
             y="0"
             x="294.453"
             style="fill:#e9d16f;fill-opacity:1" />
          <rect
             id="svg_31"
             height="126.9514"
             width="6.8713999"
             y="0"
             x="307.6868"
             style="fill:#e9d16f;fill-opacity:1" />
          <rect
             id="svg_32"
             height="126.9514"
             width="6.8713999"
             y="0"
             x="317.61221"
             style="fill:#e9d16f;fill-opacity:1" />
          <rect
             id="svg_33"
             height="126.9514"
             width="6.8713999"
             y="0"
             x="327.5376"
             style="fill:#e9d16f;fill-opacity:1" />
          <rect
             id="svg_34"
             height="144.41209"
             width="3.3085001"
             y="0"
             x="340.77139"
             style="fill:#e9d16f;fill-opacity:1" />
          <rect
             id="svg_35"
             height="144.41209"
             width="3.3085001"
             y="0"
             x="347.38831"
             style="fill:#e9d16f;fill-opacity:1" />
        </g>
      </g>
    </g>
    <g
       aria-label="Lisbn"
       transform="matrix(5.6025972,0,0,5.6025972,2555.7457,-1229.0844)"
       id="text9570"
       style="font-size:40px;line-height:1.25;font-family:Handlee;-inkscape-font-specification:'Handlee, Normal';white-space:pre;shape-inside:url(#rect9572)">
      <path
         d="m -474.63023,231.51336 -0.2,17.72 q 0,4.12 0.24,7.8 2.4,0.16 4.36,0.16 l 8.4,-0.16 q 1.96,0 1.96,1.12 0,1.32 -8.4,1.32 -2.04,0 -5.24,-0.2 -3.2,-0.2 -3.88,-0.64 -0.2,-4.24 -0.2,-13.84 l 0.2,-14.08 q 1.04,-0.8 1.68,-0.8 1.08,0 1.08,1.6 z"
         style="fill:#e9d16f"
         id="path943" />
      <path
         d="m -454.39024,229.31336 q -0.04,0.92 -0.04,2.04 0,1.12 0.12,2.32 -0.56,0.64 -1.52,0.64 -1.2,0 -1.2,-1.92 0,-0.08 0,-0.6 0,-0.52 0,-0.92 0.04,-0.44 0.16,-1 0.28,-0.96 1.24,-0.96 0.96,0 1.24,0.4 z m -2.56,19.6 q 0,-7.84 0.8,-9.04 0.28,-0.44 0.68,-0.44 0.4,0 1.32,0.44 -0.2,3.4 -0.2,7.4 0,0 0.08,8.84 0,1.24 -0.56,1.76 -0.52,0.48 -1,0.48 -0.44,0 -0.92,-0.24 -0.2,-5.2 -0.2,-9.2 z"
         style="fill:#e9d16f"
         id="path945" />
      <path
         d="m -439.19029,242.75336 q -0.36,-0.92 -1.36,-1.44 -1,-0.52 -2.48,-0.52 -1.48,0 -2.8,0.88 -1.28,0.88 -1.28,2.36 0,1.48 1.2,2.36 1.24,0.84 2.96,1.28 1.76,0.44 3.52,0.96 1.76,0.48 2.96,1.64 1.24,1.12 1.24,2.96 0,2.68 -2.24,4.08 -2.2,1.4 -5.32,1.4 -1.84,0 -4.84,-1 -2.96,-1 -2.96,-2.4 0,-1.04 1.76,-1.04 0.52,0 1.36,0.64 2.56,1.88 5.24,1.88 1.44,0 2.48,-0.48 1.92,-0.92 1.92,-2.96 0,-1.24 -1.24,-2 -1.2,-0.76 -2.96,-1.2 -1.72,-0.44 -3.48,-0.96 -1.76,-0.52 -3,-1.72 -1.2,-1.24 -1.2,-3.12 0,-2.44 2.2,-3.96 2.2,-1.52 5.44,-1.52 2.2,0 3.96,1.16 1.8,1.12 1.8,3.28 0,1.44 -1.64,1.44 -0.68,0 -0.92,-0.24 -0.2,-0.24 -0.24,-0.84 0,-0.64 -0.08,-0.92 z"
         style="fill:#e9d16f"
         id="path947" />
      <path
         d="m -431.31033,229.99336 q 0.48,-0.88 1.76,-0.88 0.28,0 0.56,0.08 0.08,2.12 0.08,11.84 0.04,-0.04 0.36,-0.36 0.36,-0.32 0.44,-0.4 0.08,-0.08 0.4,-0.36 0.32,-0.32 0.48,-0.4 0.2,-0.12 0.52,-0.32 0.32,-0.24 0.56,-0.32 0.24,-0.12 0.56,-0.24 0.6,-0.2 1.4,-0.2 2.96,0 4.76,2.48 1.8,2.44 1.8,5.48 0,3.04 -0.92,5.8 -0.92,2.72 -2.84,4.76 -1.92,2.04 -4.48,2.04 -2.52,0 -4.24,-1.88 -1.68,-1.88 -1.68,-4.28 0,-2.44 0.28,-8.96 0.28,-6.56 0.28,-9.4 0,-2.88 -0.08,-4.48 z m 5.72,27.04 q 1.56,0 2.8,-1.48 2.52,-2.92 2.52,-8.28 0,-2.88 -1.12,-5.08 -1.12,-2.24 -3.16,-2.24 -1.16,0 -2.04,1.16 -0.88,1.12 -1.36,3 -0.92,3.56 -0.92,7.92 0,3.68 1.52,4.52 0.68,0.4 1.76,0.48 z"
         style="fill:#e9d16f"
         id="path949" />
      <path
         d="m -397.27034,257.63336 q -0.72,0.76 -1.64,0.76 -1.72,0 -2.56,-1.84 -0.84,-1.84 -1,-4.48 -0.12,-2.64 -0.16,-5.28 -0.04,-2.64 -0.44,-4.48 -0.36,-1.84 -1.4,-1.84 -1.4,0 -2.4,2.52 -0.96,2.52 -1.36,5.6 -1.12,8.6 -2.16,9.64 -0.72,0.36 -1.24,0.36 -0.52,0 -0.88,-0.12 -0.84,-3.68 -1.08,-12.68 -0.08,-4.48 -0.16,-5.8 0.84,-0.56 1.44,-0.56 0.6,0 0.96,0.12 0.2,1.72 0.2,7.04 0.04,5.32 0.08,6.12 0.2,-0.84 0.48,-2.72 0.32,-1.88 0.56,-3.08 0.24,-1.24 0.76,-2.88 0.52,-1.64 1.16,-2.6 0.64,-1 1.76,-1.68 1.12,-0.72 2.52,-0.72 1.88,0 2.72,1.72 0.88,1.68 0.96,4.2 0.08,2.52 0.08,5.12 0.04,2.6 0.64,4.76 0.64,2.16 2.16,2.8 z"
         style="fill:#e9d16f"
         id="path951" />
    </g>
  </g>
</svg>
